<mxfile host="app.diagrams.net" modified="2023-11-08T08:35:16.562Z" agent="Mozilla/5.0 (Windows NT 10.0; Win64; x64) AppleWebKit/537.36 (KHTML, like Gecko) Chrome/117.0.0.0 Safari/537.36" etag="8dHJCpv3dkOrtruXDvK2" version="22.0.8" type="device">
  <diagram name="Page-1" id="74e2e168-ea6b-b213-b513-2b3c1d86103e">
    <mxGraphModel dx="2607" dy="1436" grid="1" gridSize="10" guides="1" tooltips="1" connect="1" arrows="1" fold="1" page="1" pageScale="1" pageWidth="1100" pageHeight="850" background="none" math="0" shadow="0">
      <root>
        <mxCell id="0" />
        <mxCell id="1" parent="0" />
        <mxCell id="77e6c97f196da883-1" value="&lt;font style=&quot;font-size: 14px;&quot;&gt;Group Life / Medical Insurance Flow Chart&lt;/font&gt;" style="swimlane;html=1;childLayout=stackLayout;startSize=20;rounded=0;shadow=0;labelBackgroundColor=none;strokeWidth=1;fontFamily=Verdana;fontSize=8;align=center;" parent="1" vertex="1">
          <mxGeometry x="230" y="40" width="1820" height="770" as="geometry" />
        </mxCell>
        <mxCell id="77e6c97f196da883-2" value="Level 1" style="swimlane;html=1;startSize=20;" parent="77e6c97f196da883-1" vertex="1">
          <mxGeometry y="20" width="1080" height="750" as="geometry" />
        </mxCell>
        <mxCell id="77e6c97f196da883-8" value="&lt;font style=&quot;&quot;&gt;&lt;font style=&quot;font-size: 12px;&quot;&gt;&lt;u style=&quot;&quot;&gt;&lt;b style=&quot;&quot;&gt;&lt;br&gt;&lt;/b&gt;&lt;/u&gt;&lt;b&gt;&lt;u&gt;Agents&#39; Transactions Interface&lt;/u&gt;&lt;/b&gt;&lt;br&gt;&lt;/font&gt;&lt;br&gt;&lt;div style=&quot;font-size: 9px;&quot;&gt;Transaction Date - Issue Date, Renewal Date, Adjustment Date&lt;/div&gt;&lt;div style=&quot;font-size: 9px;&quot;&gt;Agent Code - 7-digit code&lt;/div&gt;&lt;div style=&quot;font-size: 9px;&quot;&gt;Transaction Type - NB Issuance, NB Renewal, Adjustment&lt;/div&gt;&lt;div style=&quot;font-size: 9px;&quot;&gt;Business Type - Group Life, Group Medical products&lt;/div&gt;&lt;div style=&quot;font-size: 9px;&quot;&gt;Policy Number&lt;/div&gt;&lt;div style=&quot;font-size: 9px;&quot;&gt;Policy Issue Date&lt;/div&gt;&lt;div style=&quot;font-size: 9px;&quot;&gt;Policy Next Due Date - Renewal Date&lt;/div&gt;&lt;div style=&quot;font-size: 9px;&quot;&gt;Premium Amount in HKD&lt;/div&gt;&lt;div style=&quot;font-size: 9px;&quot;&gt;Commission Amount in HKD&lt;/div&gt;&lt;div style=&quot;font-size: 9px;&quot;&gt;Premium Year&lt;/div&gt;&lt;div style=&quot;font-size: 9px;&quot;&gt;Initial Annual Premium&lt;/div&gt;&lt;/font&gt;" style="rounded=1;whiteSpace=wrap;html=1;shadow=0;labelBackgroundColor=none;strokeWidth=1;fontFamily=Verdana;fontSize=8;align=center;" parent="77e6c97f196da883-2" vertex="1">
          <mxGeometry x="360" y="50" width="290" height="290" as="geometry" />
        </mxCell>
        <mxCell id="zQwO_k3t3CgDYdLT3B1n-18" value="Through SFTP" style="text;html=1;strokeColor=none;fillColor=none;align=center;verticalAlign=middle;whiteSpace=wrap;rounded=0;" vertex="1" parent="77e6c97f196da883-2">
          <mxGeometry x="750" y="150" width="130" height="40" as="geometry" />
        </mxCell>
        <mxCell id="zQwO_k3t3CgDYdLT3B1n-71" style="edgeStyle=orthogonalEdgeStyle;rounded=0;orthogonalLoop=1;jettySize=auto;html=1;" edge="1" parent="77e6c97f196da883-2" source="zQwO_k3t3CgDYdLT3B1n-51">
          <mxGeometry relative="1" as="geometry">
            <mxPoint x="150" y="240" as="targetPoint" />
          </mxGeometry>
        </mxCell>
        <mxCell id="zQwO_k3t3CgDYdLT3B1n-51" value="&lt;u&gt;&lt;b&gt;Agents&#39; Information Interface&lt;/b&gt;&lt;/u&gt;&lt;br&gt;&lt;div&gt;&lt;font style=&quot;font-size: 10px;&quot;&gt;Agent Na&lt;/font&gt;&lt;font style=&quot;font-size: 10px;&quot;&gt;me&lt;/font&gt;&lt;/div&gt;&lt;div&gt;&lt;font style=&quot;font-size: 10px;&quot;&gt;Agent Code&lt;/font&gt;&lt;/div&gt;&lt;div&gt;&lt;font style=&quot;font-size: 10px;&quot;&gt;Agent License Number&lt;/font&gt;&lt;/div&gt;&lt;div&gt;&lt;font style=&quot;font-size: 10px;&quot;&gt;Agent License Expiry Date&lt;/font&gt;&lt;/div&gt;" style="rounded=1;whiteSpace=wrap;html=1;" vertex="1" parent="77e6c97f196da883-2">
          <mxGeometry x="780" y="330" width="180" height="120" as="geometry" />
        </mxCell>
        <mxCell id="zQwO_k3t3CgDYdLT3B1n-59" value="Through SFTP" style="text;html=1;strokeColor=none;fillColor=none;align=center;verticalAlign=middle;whiteSpace=wrap;rounded=0;" vertex="1" parent="77e6c97f196da883-2">
          <mxGeometry x="450" y="355" width="170" height="40" as="geometry" />
        </mxCell>
        <mxCell id="zQwO_k3t3CgDYdLT3B1n-65" value="&lt;b style=&quot;border-color: var(--border-color);&quot;&gt;&lt;font style=&quot;border-color: var(--border-color); font-size: 18px;&quot;&gt;Asia Insurance&lt;/font&gt;&lt;/b&gt;" style="ellipse;whiteSpace=wrap;html=1;" vertex="1" parent="77e6c97f196da883-2">
          <mxGeometry x="20" y="101.25" width="270" height="137.5" as="geometry" />
        </mxCell>
        <mxCell id="zQwO_k3t3CgDYdLT3B1n-66" style="edgeStyle=orthogonalEdgeStyle;rounded=0;orthogonalLoop=1;jettySize=auto;html=1;entryX=-0.01;entryY=0.416;entryDx=0;entryDy=0;entryPerimeter=0;" edge="1" parent="77e6c97f196da883-2" source="zQwO_k3t3CgDYdLT3B1n-65" target="77e6c97f196da883-8">
          <mxGeometry relative="1" as="geometry" />
        </mxCell>
        <mxCell id="77e6c97f196da883-26" style="edgeStyle=orthogonalEdgeStyle;rounded=1;html=1;labelBackgroundColor=none;startArrow=none;startFill=0;startSize=5;endArrow=classicThin;endFill=1;endSize=5;jettySize=auto;orthogonalLoop=1;strokeWidth=1;fontFamily=Verdana;fontSize=8" parent="77e6c97f196da883-1" source="77e6c97f196da883-8" target="77e6c97f196da883-11" edge="1">
          <mxGeometry relative="1" as="geometry" />
        </mxCell>
        <mxCell id="77e6c97f196da883-3" value="Level 2" style="swimlane;html=1;startSize=20;" parent="77e6c97f196da883-1" vertex="1">
          <mxGeometry x="1080" y="20" width="270" height="750" as="geometry" />
        </mxCell>
        <mxCell id="zQwO_k3t3CgDYdLT3B1n-58" style="edgeStyle=orthogonalEdgeStyle;rounded=0;orthogonalLoop=1;jettySize=auto;html=1;" edge="1" parent="77e6c97f196da883-3" source="77e6c97f196da883-11" target="77e6c97f196da883-12">
          <mxGeometry relative="1" as="geometry" />
        </mxCell>
        <mxCell id="77e6c97f196da883-11" value="&lt;font style=&quot;font-size: 12px;&quot;&gt;&lt;b&gt;&lt;u&gt;FT Life&lt;br&gt;&lt;/u&gt;&lt;/b&gt;&lt;/font&gt;&lt;font style=&quot;font-size: 12px;&quot;&gt;DSS user&lt;/font&gt;&amp;nbsp;&amp;nbsp;" style="rounded=1;whiteSpace=wrap;html=1;shadow=0;labelBackgroundColor=none;strokeWidth=1;fontFamily=Verdana;fontSize=8;align=center;" parent="77e6c97f196da883-3" vertex="1">
          <mxGeometry x="60" y="65" width="100" height="60" as="geometry" />
        </mxCell>
        <mxCell id="77e6c97f196da883-12" value="&lt;font style=&quot;font-size: 12px;&quot;&gt;&lt;b&gt;eBao&lt;/b&gt;&lt;/font&gt;" style="rounded=1;whiteSpace=wrap;html=1;shadow=0;labelBackgroundColor=none;strokeWidth=1;fontFamily=Verdana;fontSize=8;align=center;" parent="77e6c97f196da883-3" vertex="1">
          <mxGeometry x="60" y="360" width="100" height="60" as="geometry" />
        </mxCell>
        <mxCell id="zQwO_k3t3CgDYdLT3B1n-16" value="Manual handle&amp;nbsp;" style="text;html=1;strokeColor=none;fillColor=none;align=center;verticalAlign=middle;whiteSpace=wrap;rounded=0;" vertex="1" parent="77e6c97f196da883-3">
          <mxGeometry x="110" y="170" width="110" height="20" as="geometry" />
        </mxCell>
        <mxCell id="zQwO_k3t3CgDYdLT3B1n-34" value="Run batch job" style="text;html=1;strokeColor=none;fillColor=none;align=center;verticalAlign=middle;whiteSpace=wrap;rounded=0;" vertex="1" parent="77e6c97f196da883-3">
          <mxGeometry x="170" y="220" width="110" height="20" as="geometry" />
        </mxCell>
        <mxCell id="77e6c97f196da883-4" value="Level 3" style="swimlane;html=1;startSize=20;" parent="77e6c97f196da883-1" vertex="1">
          <mxGeometry x="1350" y="20" width="270" height="750" as="geometry" />
        </mxCell>
        <mxCell id="zQwO_k3t3CgDYdLT3B1n-7" value="&lt;font style=&quot;&quot;&gt;&lt;b style=&quot;font-size: 12px;&quot;&gt;SD Report&lt;br&gt;&lt;/b&gt;&lt;font style=&quot;font-size: 10px;&quot;&gt;scm0032a_ebao / scm0032c_ebao_adjust&lt;/font&gt;&lt;/font&gt;&lt;font style=&quot;font-size: 12px;&quot;&gt;&amp;nbsp;&lt;br&gt;&lt;/font&gt;" style="rounded=1;whiteSpace=wrap;html=1;shadow=0;labelBackgroundColor=none;strokeWidth=1;fontFamily=Verdana;fontSize=8;align=center;" vertex="1" parent="77e6c97f196da883-4">
          <mxGeometry x="130" y="50" width="130" height="130" as="geometry" />
        </mxCell>
        <mxCell id="zQwO_k3t3CgDYdLT3B1n-9" value="&lt;font style=&quot;font-size: 12px;&quot;&gt;&lt;b&gt;MIS Report&lt;/b&gt;&lt;br&gt;Mi113f&lt;br&gt;Mi124&lt;br&gt;&amp;nbsp;Mi129&amp;nbsp;&lt;br&gt;&lt;/font&gt;" style="rounded=1;whiteSpace=wrap;html=1;shadow=0;labelBackgroundColor=none;strokeWidth=1;fontFamily=Verdana;fontSize=8;align=center;" vertex="1" parent="77e6c97f196da883-4">
          <mxGeometry x="150" y="220" width="100" height="60" as="geometry" />
        </mxCell>
        <mxCell id="zQwO_k3t3CgDYdLT3B1n-12" value="&lt;font style=&quot;font-size: 12px;&quot;&gt;&lt;b&gt;P06 Database&lt;/b&gt;&lt;/font&gt;" style="rounded=1;whiteSpace=wrap;html=1;shadow=0;labelBackgroundColor=none;strokeWidth=1;fontFamily=Verdana;fontSize=8;align=center;" vertex="1" parent="77e6c97f196da883-4">
          <mxGeometry x="150" y="345" width="100" height="60" as="geometry" />
        </mxCell>
        <mxCell id="zQwO_k3t3CgDYdLT3B1n-17" value="Through SSIS" style="text;html=1;strokeColor=none;fillColor=none;align=center;verticalAlign=middle;whiteSpace=wrap;rounded=0;" vertex="1" parent="77e6c97f196da883-4">
          <mxGeometry x="45" y="220" width="90" height="30" as="geometry" />
        </mxCell>
        <mxCell id="zQwO_k3t3CgDYdLT3B1n-19" value="Through DSG" style="text;html=1;strokeColor=none;fillColor=none;align=center;verticalAlign=middle;whiteSpace=wrap;rounded=0;" vertex="1" parent="77e6c97f196da883-4">
          <mxGeometry x="50" y="350" width="90" height="30" as="geometry" />
        </mxCell>
        <mxCell id="zQwO_k3t3CgDYdLT3B1n-23" value="Update" style="text;html=1;strokeColor=none;fillColor=none;align=center;verticalAlign=middle;whiteSpace=wrap;rounded=0;" vertex="1" parent="77e6c97f196da883-4">
          <mxGeometry x="60" y="390" width="60" height="30" as="geometry" />
        </mxCell>
        <mxCell id="zQwO_k3t3CgDYdLT3B1n-25" value="Generate" style="text;html=1;strokeColor=none;fillColor=none;align=center;verticalAlign=middle;whiteSpace=wrap;rounded=0;" vertex="1" parent="77e6c97f196da883-4">
          <mxGeometry x="65" y="155" width="60" height="30" as="geometry" />
        </mxCell>
        <mxCell id="zQwO_k3t3CgDYdLT3B1n-8" style="edgeStyle=orthogonalEdgeStyle;rounded=0;orthogonalLoop=1;jettySize=auto;html=1;entryX=0;entryY=0.5;entryDx=0;entryDy=0;" edge="1" parent="77e6c97f196da883-4" source="77e6c97f196da883-12" target="zQwO_k3t3CgDYdLT3B1n-9">
          <mxGeometry relative="1" as="geometry">
            <mxPoint x="-520" y="240" as="targetPoint" />
            <Array as="points">
              <mxPoint x="150" y="250" />
            </Array>
          </mxGeometry>
        </mxCell>
        <mxCell id="zQwO_k3t3CgDYdLT3B1n-24" value="Generate" style="text;html=1;strokeColor=none;fillColor=none;align=center;verticalAlign=middle;whiteSpace=wrap;rounded=0;" vertex="1" parent="77e6c97f196da883-4">
          <mxGeometry x="65" y="250" width="60" height="30" as="geometry" />
        </mxCell>
        <mxCell id="zQwO_k3t3CgDYdLT3B1n-6" style="edgeStyle=orthogonalEdgeStyle;rounded=0;orthogonalLoop=1;jettySize=auto;html=1;entryX=0;entryY=0.5;entryDx=0;entryDy=0;" edge="1" parent="77e6c97f196da883-1" source="77e6c97f196da883-12" target="zQwO_k3t3CgDYdLT3B1n-7">
          <mxGeometry relative="1" as="geometry">
            <mxPoint x="370" y="230" as="targetPoint" />
          </mxGeometry>
        </mxCell>
        <mxCell id="zQwO_k3t3CgDYdLT3B1n-13" style="edgeStyle=orthogonalEdgeStyle;rounded=0;orthogonalLoop=1;jettySize=auto;html=1;entryX=0;entryY=0.75;entryDx=0;entryDy=0;" edge="1" parent="77e6c97f196da883-1" source="77e6c97f196da883-12" target="zQwO_k3t3CgDYdLT3B1n-12">
          <mxGeometry relative="1" as="geometry" />
        </mxCell>
        <mxCell id="zQwO_k3t3CgDYdLT3B1n-20" style="edgeStyle=orthogonalEdgeStyle;rounded=0;orthogonalLoop=1;jettySize=auto;html=1;entryX=0.008;entryY=0.422;entryDx=0;entryDy=0;entryPerimeter=0;" edge="1" parent="77e6c97f196da883-1" source="zQwO_k3t3CgDYdLT3B1n-12" target="zQwO_k3t3CgDYdLT3B1n-15">
          <mxGeometry relative="1" as="geometry" />
        </mxCell>
        <mxCell id="zQwO_k3t3CgDYdLT3B1n-69" style="edgeStyle=orthogonalEdgeStyle;rounded=0;orthogonalLoop=1;jettySize=auto;html=1;" edge="1" parent="77e6c97f196da883-1" source="77e6c97f196da883-12" target="zQwO_k3t3CgDYdLT3B1n-51">
          <mxGeometry relative="1" as="geometry" />
        </mxCell>
        <mxCell id="77e6c97f196da883-5" value="Level 4" style="swimlane;html=1;startSize=20;" parent="77e6c97f196da883-1" vertex="1">
          <mxGeometry x="1620" y="20" width="200" height="750" as="geometry" />
        </mxCell>
        <mxCell id="zQwO_k3t3CgDYdLT3B1n-15" value="&lt;font style=&quot;font-size: 12px;&quot;&gt;&lt;b&gt;P08&lt;/b&gt;&lt;/font&gt;" style="rounded=1;whiteSpace=wrap;html=1;shadow=0;labelBackgroundColor=none;strokeWidth=1;fontFamily=Verdana;fontSize=8;align=center;" vertex="1" parent="77e6c97f196da883-5">
          <mxGeometry x="60" y="350" width="100" height="60" as="geometry" />
        </mxCell>
        <mxCell id="zQwO_k3t3CgDYdLT3B1n-21" value="Update" style="text;html=1;strokeColor=none;fillColor=none;align=center;verticalAlign=middle;whiteSpace=wrap;rounded=0;" vertex="1" parent="77e6c97f196da883-5">
          <mxGeometry x="-20" y="340" width="90" height="30" as="geometry" />
        </mxCell>
      </root>
    </mxGraphModel>
  </diagram>
</mxfile>
